<svg xmlns="http://www.w3.org/2000/svg" viewBox="0 0 32 32">
  <rect width="32" height="32" rx="7" fill="#0A0F1E"/>
  <g fill="none" stroke="#1B4FD8" stroke-linecap="round" stroke-linejoin="round">
    <!-- Left hemisphere outer contour -->
    <path stroke-width="1.3" d="M16,26 C14,26 12,25.5 11,24 C9.5,22.5 9,20 9,18 C7.5,17 6.5,15.5 6.5,13.5 C6.5,11 7.5,9 9,8 C10,6.5 12,5.5 14,5.5 C15,5.5 15.5,5.5 16,6"/>
    <!-- Right hemisphere outer contour -->
    <path stroke-width="1.3" d="M16,26 C18,26 20,25.5 21,24 C22.5,22.5 23,20 23,18 C24.5,17 25.5,15.5 25.5,13.5 C25.5,11 24.5,9 23,8 C22,6.5 20,5.5 18,5.5 C17,5.5 16.5,5.5 16,6"/>
    <!-- Central longitudinal fissure -->
    <path stroke-width="0.9" opacity="0.55" d="M16,6 L16,26"/>
    <!-- Left hemisphere gyri -->
    <path stroke-width="0.85" opacity="0.7" d="M9.5,10 Q11,8.5 12.5,10"/>
    <path stroke-width="0.85" opacity="0.7" d="M8,14.5 Q9.5,13 11,14.5"/>
    <path stroke-width="0.85" opacity="0.7" d="M9,19.5 Q10.5,18 12,19.5"/>
    <!-- Right hemisphere gyri -->
    <path stroke-width="0.85" opacity="0.7" d="M22.5,10 Q21,8.5 19.5,10"/>
    <path stroke-width="0.85" opacity="0.7" d="M24,14.5 Q22.5,13 21,14.5"/>
    <path stroke-width="0.85" opacity="0.7" d="M23,19.5 Q21.5,18 20,19.5"/>
  </g>
</svg>
